<svg width="1130" height="424" fill="none" xmlns="http://www.w3.org/2000/svg"><path d="M1.94 424.001c-.323 0-.646 0-.97-.323-.97-.647-1.293-1.941-.646-2.911L228.976.972c.647-.97 1.617-1.294 2.587-.647.97.647 1.294 1.94.647 2.91L3.881 423.031c-.646.647-1.293.97-1.94.97z" fill="#F8EA49"/><path opacity=".9" d="M91.85 424c-.324 0-.648 0-.971-.323-.97-.647-1.294-1.941-.647-2.911L318.561.97c.646-.97 1.617-1.293 2.587-.647.97.647 1.294 1.94.647 2.911L93.466 423.03c-.323.647-.97.97-1.617.97z" fill="#F8EA49"/><path opacity=".8" d="M181.434 424c-.323 0-.647 0-.97-.323-.97-.647-1.294-1.941-.647-2.911L408.469.97c.647-.97 1.617-1.293 2.587-.647.97.647 1.294 1.94.647 2.911L183.051 423.03c-.323.647-.97.97-1.617.97z" fill="#F8EA49"/><path opacity=".7" d="M271.343 424c-.324 0-.647 0-.971-.323-.97-.647-1.293-1.941-.646-2.911L498.054.97c.647-.97 1.617-1.293 2.588-.647.97.647 1.293 1.94.646 2.911L272.96 423.03c-.324.647-.97.97-1.617.97z" fill="#F8EA49"/><path opacity=".6" d="M360.927 424c-.323 0-.647 0-.97-.323-.97-.647-1.294-1.941-.647-2.911L587.962.97c.647-.97 1.617-1.293 2.587-.647.971.647 1.294 1.94.647 2.911L362.544 423.353c-.323.324-.97.647-1.617.647z" fill="#F8EA49"/><path opacity=".5" d="M450.512 424c-.323 0-.647 0-.97-.323-.97-.647-1.294-1.941-.647-2.911L677.547.97c.647-.97 1.617-1.293 2.587-.647.971.647 1.294 1.94.647 2.911L452.129 423.353c0 .324-.647.647-1.617.647z" fill="#F8EA49"/><path opacity=".4" d="M540.421 424c-.324 0-.647 0-.97-.323-.971-.647-1.294-1.941-.647-2.911L767.456.97c.647-.97 1.617-1.293 2.587-.647.97.647 1.294 1.94.647 2.911L542.038 423.353c-.323.324-.97.647-1.617.647z" fill="#F8EA49"/><path opacity=".3" d="M630.006 424c-.324 0-.647 0-.97-.323-.971-.647-1.294-1.941-.647-2.911L857.041.97c.647-.97 1.617-1.293 2.587-.647.97.647 1.294 1.94.647 2.911L631.623 423.353c0 .324-.647.647-1.617.647z" fill="#F8EA49"/><path opacity=".2" d="M719.915 424c-.324 0-.647 0-.971-.323-.97-.647-1.293-1.941-.647-2.911L946.949.97c.647-.97 1.617-1.293 2.588-.647.97.647 1.293 1.94.646 2.911L721.532 423.353c-.324.324-.971.647-1.617.647z" fill="#F8EA49"/><path opacity=".1" d="M809.499 424c-.323 0-.647 0-.97-.323-.97-.647-1.294-1.941-.647-2.911L1036.53.97c.65-.97 1.62-1.293 2.59-.647.97.647 1.29 1.94.65 2.911L811.116 423.353c0 .324-.97.647-1.617.647z" fill="#F8EA49"/></svg>