<svg width="411" height="147" fill="none" xmlns="http://www.w3.org/2000/svg"><path d="M210.528 492.512l-1.63-.741L409.222 0 411 .74 210.528 492.513zm-37.931 0l-1.63-.741L371.143.593l1.629.74-200.175 491.179zm-37.931 0l-1.63-.741L333.212.593l1.629.74-200.175 491.179zm-37.932 0l-1.63-.741L295.28.593l1.63.74-200.176 491.18zm-37.931 0l-1.63-.741L257.35.593l1.63.74-200.177 491.18zm-37.931 0l-1.63-.741L219.418.593l1.63.74-200.176 491.18zm-37.931 0l-1.63-.741L181.487.593l1.63.74-200.176 491.179zm-37.931 0l-1.63-.741L143.556.593l1.63.74-200.176 491.18zm-35.116 0l-1.778-.741L108.292.593l1.778.74-200.176 491.179zm-35.264 0l-1.63-.741L73.176.593l1.778.74-200.324 491.179z" fill="#FBBA00"/></svg>