<svg width="149" height="81" fill="none" xmlns="http://www.w3.org/2000/svg"><path d="M41.324 0h31.548l18.662 21.995H58.875l-3.777-4.221H23.106L41.324 0zm23.772 80.204l22.883-22.217H55.322l-4.444 4.22H18.44l15.108 18.219h31.548v-.222zM15.108 57.987H47.1L31.548 39.99l19.33-18.218H18.883L0 39.99l15.108 17.995zM137.079 41.99s0 .889-.222 1.555l-.222.445-.222.666c-.667 2.222-2.889 3.333-5.999 3.333h-13.108l-1.333 4.221h17.774c4.887 0 8.886-2.888 10.664-6.665l1.333-3.777c0-.222.222-.666.222-.889a2.466 2.466 0 00-2.444-2.444h-15.33s.445-1.333.445-1.777l.222-.444v-.222c.889-2.444 3.555-3.777 6.665-3.777h11.997l1.333-4h-17.107c-4.888 0-9.331 2.667-10.886 7.332l-1.111 3.333c0 .222-.222.666-.222.889a2.466 2.466 0 002.444 2.443h12.663l2.444-.222zm-60.43 5.11c-.222.444-.222.889-.222 1.333 0 2 1.777 3.777 3.776 3.777h12.22c4.888 0 8.887-2.888 10.664-6.665l2.444-7.332H92.645l-1.333 3.777h4.666l-.889 2.666c-.666 2.222-2.888 3.333-5.999 3.333h-2.888c-.888 0-1.555-.667-1.555-1.555v-.445l3.332-9.997c.89-2.444 3.555-3.777 6.666-3.777h12.219l1.333-4H91.09c-4.888 0-9.331 2.667-10.886 7.332L76.648 47.1zm-3.555 5.11l1.333-4.221H57.764c-1.333 0-1.333-.889-1.11-1.555 0-.222 1.555-4.444 1.555-4.444h13.33l1.333-3.777h-13.33s1.333-4.443 1.555-4.887c.222-.445.889-1.333 1.777-1.333h16.219l1.333-4h-25.55l-6.665 19.774-.222.666c0 .222-.222.667-.222.889 0 1.333 1.11 2.666 2.666 2.666h.444l22.217.222zm39.102 0l7.998-23.994h-8.22l-6.443 19.106-.222.667-.222.666c0 .222-.223.667-.223.889 0 1.333 1.111 2.666 2.667 2.666h4.665z" fill="#fff"/></svg>