<svg width="1425" height="46" fill="none" xmlns="http://www.w3.org/2000/svg"><g clip-path="url(#clip0)"><path d="M19.545.368H592.53l2.11 22.644 2.884 23.031H24.495L.043 23.012 19.545.368z" fill="#FFAB49"/></g><g clip-path="url(#clip1)"><path d="M496.545.368h572.985l2.11 22.644 2.89 23.031H501.495l-24.452-23.031L496.545.368z" fill="#FF8A00"/></g><g clip-path="url(#clip2)"><path d="M939.545.368h572.985l2.11 22.644 2.89 23.031H944.495l-24.452-23.03L939.545.367z" fill="#EF8100"/></g><defs><clipPath id="clip0"><path fill="#fff" transform="matrix(1 0 0 -1 0 46)" d="M0 0h576v45.632H0z"/></clipPath><clipPath id="clip1"><path fill="#fff" transform="matrix(1 0 0 -1 477 46)" d="M0 0h576v45.632H0z"/></clipPath><clipPath id="clip2"><path fill="#fff" transform="matrix(1 0 0 -1 920 46)" d="M0 0h576v45.632H0z"/></clipPath></defs></svg>