<svg width="144" height="178" fill="none" xmlns="http://www.w3.org/2000/svg"><g clip-path="url(#clip0)" fill="#F8EA49"><path d="M.812 178.001c-.135 0-.27 0-.406-.136-.406-.272-.541-.815-.27-1.222L95.845.408c.27-.407.676-.543 1.083-.272.406.272.541.815.27 1.222L1.625 177.593c-.271.272-.542.408-.813.408z"/><path opacity=".9" d="M38.447 178c-.136 0-.271 0-.407-.136-.406-.271-.541-.814-.27-1.222L133.344.407c.271-.407.677-.543 1.083-.271.407.271.542.814.271 1.222L39.123 177.593a.745.745 0 01-.676.407z"/><path opacity=".8" d="M75.945 178c-.135 0-.27 0-.406-.136-.406-.271-.541-.814-.27-1.222L170.978.407c.27-.407.676-.543 1.083-.271.406.271.541.814.27 1.222l-95.71 176.235a.745.745 0 01-.677.407z"/><path opacity=".7" d="M113.58 178c-.136 0-.271 0-.406-.136-.407-.271-.542-.814-.271-1.222L208.478.407c.27-.407.676-.543 1.083-.271.406.271.541.814.27 1.222l-95.574 176.235a.746.746 0 01-.677.407z"/></g><defs><clipPath id="clip0"><path fill="#fff" d="M0 0h473v178H0z"/></clipPath></defs></svg>