<svg width="889" height="215" viewBox="0 0 889 215" fill="none" xmlns="http://www.w3.org/2000/svg">
<path d="M728.643 215L868.22 215L783.533 120.685L889 25.0001L749.227 25.0001L647.288 120.685L728.643 215Z" fill="#004288"/>
<path d="M133.355 215L715.313 215L630.625 120.685L736.092 25.0001L153.939 25.0001L52.0001 120.685L133.355 215Z" fill="#004288"/>
<path d="M19.8318 141L52.2269 141L32.5715 119.159L57.0498 97L24.6092 97L0.949793 119.159L19.8318 141Z" fill="#0055AF"/>
<path d="M98.3309 80L157.231 80L121.494 40.2884L166 7.62939e-06L107.017 2.47294e-06L64 40.2884L98.3309 80Z" fill="#0055AF"/>
</svg>
