<svg width="1130" height="424" viewBox="0 0 1130 424" fill="none" xmlns="http://www.w3.org/2000/svg">
<path d="M1.94088 424.001C1.61747 424.001 1.29406 424.001 0.970644 423.678C0.000408788 423.031 -0.323003 421.737 0.32382 420.767L228.976 0.971569C229.623 0.00131692 230.593 -0.3221 231.563 0.324734C232.533 0.971569 232.857 2.26524 232.21 3.23549L3.88135 423.031C3.23452 423.678 2.5877 424.001 1.94088 424.001Z" fill="#F8EA49"/>
<g opacity="0.9">
<path opacity="0.9" d="M91.8491 424C91.5257 424 91.2023 424 90.8788 423.677C89.9086 423.03 89.5852 421.736 90.232 420.766L318.561 0.970256C319.207 4.66034e-06 320.178 -0.323413 321.148 0.323422C322.118 0.970256 322.442 2.26393 321.795 3.23418L93.4661 423.03C93.1427 423.677 92.4959 424 91.8491 424Z" fill="#F8EA49"/>
</g>
<g opacity="0.8">
<path opacity="0.8" d="M181.434 424C181.111 424 180.787 424 180.464 423.677C179.494 423.03 179.17 421.736 179.817 420.766L408.469 0.970256C409.116 4.66034e-06 410.086 -0.323413 411.056 0.323422C412.026 0.970256 412.35 2.26393 411.703 3.23418L183.051 423.03C182.728 423.677 182.081 424 181.434 424Z" fill="#F8EA49"/>
</g>
<g opacity="0.7">
<path opacity="0.7" d="M271.343 424C271.019 424 270.696 424 270.372 423.677C269.402 423.03 269.079 421.736 269.726 420.766L498.054 0.970256C498.701 4.66034e-06 499.671 -0.323413 500.642 0.323422C501.612 0.970256 501.935 2.26393 501.288 3.23418L272.96 423.03C272.636 423.677 271.99 424 271.343 424Z" fill="#F8EA49"/>
</g>
<g opacity="0.6">
<path opacity="0.6" d="M360.927 424C360.604 424 360.28 424 359.957 423.677C358.987 423.03 358.663 421.736 359.31 420.766L587.962 0.970256C588.609 4.66034e-06 589.579 -0.323413 590.549 0.323422C591.52 0.970256 591.843 2.26393 591.196 3.23418L362.544 423.353C362.221 423.677 361.574 424 360.927 424Z" fill="#F8EA49"/>
</g>
<g opacity="0.5">
<path opacity="0.5" d="M450.512 424C450.189 424 449.865 424 449.542 423.677C448.572 423.03 448.248 421.736 448.895 420.766L677.547 0.970256C678.194 4.66034e-06 679.164 -0.323413 680.134 0.323422C681.105 0.970256 681.428 2.26393 680.781 3.23418L452.129 423.353C452.129 423.677 451.482 424 450.512 424Z" fill="#F8EA49"/>
</g>
<g opacity="0.4">
<path opacity="0.4" d="M540.421 424C540.097 424 539.774 424 539.451 423.677C538.48 423.03 538.157 421.736 538.804 420.766L767.456 0.970256C768.103 4.66034e-06 769.073 -0.323413 770.043 0.323422C771.013 0.970256 771.337 2.26393 770.69 3.23418L542.038 423.353C541.715 423.677 541.068 424 540.421 424Z" fill="#F8EA49"/>
</g>
<g opacity="0.3">
<path opacity="0.3" d="M630.006 424C629.682 424 629.359 424 629.036 423.677C628.065 423.03 627.742 421.736 628.389 420.766L857.041 0.970256C857.688 4.66034e-06 858.658 -0.323413 859.628 0.323422C860.598 0.970256 860.922 2.26393 860.275 3.23418L631.623 423.353C631.623 423.677 630.976 424 630.006 424Z" fill="#F8EA49"/>
</g>
<g opacity="0.2">
<path opacity="0.2" d="M719.915 424C719.591 424 719.268 424 718.944 423.677C717.974 423.03 717.651 421.736 718.297 420.766L946.949 0.970256C947.596 4.66034e-06 948.566 -0.323413 949.537 0.323422C950.507 0.970256 950.83 2.26393 950.183 3.23418L721.532 423.353C721.208 423.677 720.561 424 719.915 424Z" fill="#F8EA49"/>
</g>
<g opacity="0.1">
<path opacity="0.1" d="M809.499 424C809.176 424 808.852 424 808.529 423.677C807.559 423.03 807.235 421.736 807.882 420.766L1036.53 0.970256C1037.18 4.66034e-06 1038.15 -0.323413 1039.12 0.323422C1040.09 0.970256 1040.41 2.26393 1039.77 3.23418L811.116 423.353C811.116 423.677 810.146 424 809.499 424Z" fill="#F8EA49"/>
</g>
</svg>
