<svg width="411" height="147" viewBox="0 0 411 147" fill="none" xmlns="http://www.w3.org/2000/svg">
<path d="M210.528 492.512L208.898 491.771L409.222 0L411 0.740843L210.528 492.512Z" fill="#FBBA00"/>
<path d="M172.597 492.512L170.967 491.771L371.143 0.592712L372.772 1.33356L172.597 492.512Z" fill="#FBBA00"/>
<path d="M134.666 492.512L133.036 491.771L333.212 0.592712L334.841 1.33356L134.666 492.512Z" fill="#FBBA00"/>
<path d="M96.7345 492.512L95.1047 491.771L295.28 0.592712L296.91 1.33356L96.7345 492.512Z" fill="#FBBA00"/>
<path d="M58.8033 492.512L57.1735 491.771L257.349 0.592712L258.979 1.33356L58.8033 492.512Z" fill="#FBBA00"/>
<path d="M20.8722 492.512L19.2424 491.771L219.418 0.592712L221.048 1.33356L20.8722 492.512Z" fill="#FBBA00"/>
<path d="M-17.059 492.512L-18.6888 491.771L181.487 0.592712L183.117 1.33356L-17.059 492.512Z" fill="#FBBA00"/>
<path d="M-54.9901 492.512L-56.6199 491.771L143.556 0.592712L145.186 1.33356L-54.9901 492.512Z" fill="#FBBA00"/>
<path d="M-90.106 492.512L-91.884 491.771L108.292 0.592712L110.07 1.33356L-90.106 492.512Z" fill="#FBBA00"/>
<path d="M-125.37 492.512L-127 491.771L73.1757 0.592712L74.9537 1.33356L-125.37 492.512Z" fill="#FBBA00"/>
</svg>
