<svg width="149" height="81" viewBox="0 0 149 81" fill="none" xmlns="http://www.w3.org/2000/svg">
<path d="M41.3237 0H72.8719L91.5342 21.9949H58.8752L55.0983 17.7736H23.1058L41.3237 0ZM65.096 80.2035L87.9795 57.9865H55.3205L50.8771 62.2077H18.4402L33.5478 80.4257H65.096V80.2035ZM15.1076 57.9865H47.1002L31.5482 39.9907L50.8771 21.7727H18.8845L0 39.9907L15.1076 57.9865ZM137.079 41.9902C137.079 41.9902 137.079 42.8789 136.857 43.5454L136.635 43.9898L136.413 44.6563C135.746 46.878 133.524 47.9888 130.414 47.9888H117.306L115.973 52.2101H133.747C138.634 52.2101 142.633 49.3218 144.411 45.5449L145.744 41.7681C145.744 41.5459 145.966 41.1015 145.966 40.8794C145.966 39.5463 144.855 38.4355 143.522 38.4355H130.414H128.192C128.192 38.4355 128.637 37.1025 128.637 36.6581L128.859 36.2138V35.9916C129.748 33.5478 132.414 32.2147 135.524 32.2147H147.521L148.854 28.2157H131.747C126.859 28.2157 122.416 30.8817 120.861 35.5473L119.75 38.8798C119.75 39.102 119.528 39.5463 119.528 39.7685C119.528 41.1015 120.639 42.2124 121.972 42.2124H134.635L137.079 41.9902ZM76.6488 47.1002C76.4266 47.5445 76.4267 47.9888 76.4267 48.4332C76.4267 50.4327 78.204 52.2101 80.2035 52.2101H80.4257H92.4229C97.3107 52.2101 101.31 49.3218 103.087 45.5449L105.531 38.2133H92.6451L91.3121 41.9902H95.9777L95.089 44.6563C94.4225 46.878 92.2008 47.9888 89.0904 47.9888H86.2022C85.3135 47.9888 84.647 47.3223 84.647 46.4336C84.647 46.2115 84.647 46.2115 84.647 45.9893L87.9795 35.9916C88.8682 33.5478 91.5342 32.2147 94.6446 32.2147H106.864L108.197 28.2157H91.0899C86.2021 28.2157 81.7587 30.8817 80.2035 35.5473L76.6488 47.1002ZM73.0941 52.2101L74.4271 47.9888H57.7643C56.4313 47.9888 56.4313 47.1001 56.6535 46.4336C56.6535 46.2115 58.2087 41.9902 58.2087 41.9902H71.5389L72.8719 38.2133H59.5417C59.5417 38.2133 60.8747 33.7699 61.0969 33.3256C61.319 32.8812 61.9856 31.9926 62.8743 31.9926H79.0927L80.4257 27.9935H54.8761L48.211 47.7667L47.9888 48.4332C47.9888 48.6553 47.7666 49.0997 47.7666 49.3219C47.7666 50.6549 48.8775 51.9879 50.4327 51.9879H50.8771L73.0941 52.2101ZM112.196 52.2101L120.194 28.2157H111.974L105.531 47.3223L105.309 47.9888L105.087 48.6553C105.087 48.8775 104.864 49.3218 104.864 49.544C104.864 50.877 105.975 52.2101 107.531 52.2101H107.975H108.197H112.196Z" fill="white"/>
</svg>
