<svg width="144" height="178" viewBox="0 0 144 178" fill="none" xmlns="http://www.w3.org/2000/svg">
<g clip-path="url(#clip0)">
<path d="M0.812364 178.001C0.676989 178.001 0.541614 178.001 0.406239 177.865C0.000114074 177.593 -0.135261 177.05 0.135489 176.643L95.8456 0.40785C96.1163 0.000526982 96.5224 -0.135247 96.9286 0.136301C97.3347 0.40785 97.4701 0.950947 97.1993 1.35827L1.62461 177.593C1.35386 177.865 1.08311 178.001 0.812364 178.001Z" fill="#F8EA49"/>
<g opacity="0.9">
<path opacity="0.9" d="M38.4466 178C38.3113 178 38.1759 178 38.0405 177.864C37.6344 177.593 37.499 177.05 37.7698 176.642L133.344 0.4073C133.615 -2.2335e-05 134.021 -0.135797 134.427 0.135752C134.834 0.4073 134.969 0.950397 134.698 1.35772L39.1235 177.593C38.9881 177.864 38.7174 178 38.4466 178Z" fill="#F8EA49"/>
</g>
<g opacity="0.8">
<path opacity="0.8" d="M75.9454 178C75.81 178 75.6747 178 75.5393 177.864C75.1332 177.593 74.9978 177.05 75.2685 176.642L170.979 0.4073C171.249 -2.2335e-05 171.655 -0.135797 172.062 0.135752C172.468 0.4073 172.603 0.950397 172.332 1.35772L76.6223 177.593C76.4869 177.864 76.2162 178 75.9454 178Z" fill="#F8EA49"/>
</g>
<g opacity="0.7">
<path opacity="0.7" d="M113.58 178C113.444 178 113.309 178 113.174 177.864C112.767 177.593 112.632 177.05 112.903 176.642L208.478 0.4073C208.748 -2.2335e-05 209.154 -0.135797 209.561 0.135752C209.967 0.4073 210.102 0.950397 209.831 1.35772L114.257 177.593C114.121 177.864 113.85 178 113.58 178Z" fill="#F8EA49"/>
</g>
</g>
<defs>
<clipPath id="clip0">
<rect width="473" height="178" fill="white"/>
</clipPath>
</defs>
</svg>
