<svg width="473" height="178" viewBox="0 0 473 178" fill="none" xmlns="http://www.w3.org/2000/svg">
<g clip-path="url(#clip0)">
<path d="M0.812364 178.001C0.676989 178.001 0.541614 178.001 0.406239 177.865C0.000114074 177.593 -0.135261 177.05 0.135489 176.643L95.8456 0.40785C96.1163 0.000526982 96.5224 -0.135247 96.9286 0.136301C97.3347 0.40785 97.4701 0.950947 97.1993 1.35827L1.62461 177.593C1.35386 177.865 1.08311 178.001 0.812364 178.001Z" fill="#F8EA49"/>
<g opacity="0.9">
<path opacity="0.9" d="M38.4466 178C38.3113 178 38.1759 178 38.0405 177.864C37.6344 177.593 37.499 177.05 37.7698 176.642L133.344 0.4073C133.615 -2.2335e-05 134.021 -0.135797 134.427 0.135752C134.834 0.4073 134.969 0.950397 134.698 1.35772L39.1235 177.593C38.9881 177.864 38.7174 178 38.4466 178Z" fill="#F8EA49"/>
</g>
<g opacity="0.8">
<path opacity="0.8" d="M75.9452 178C75.8098 178 75.6744 178 75.5391 177.864C75.1329 177.593 74.9976 177.05 75.2683 176.642L170.978 0.4073C171.249 -2.2335e-05 171.655 -0.135797 172.061 0.135752C172.467 0.4073 172.603 0.950397 172.332 1.35772L76.6221 177.593C76.4867 177.864 76.2159 178 75.9452 178Z" fill="#F8EA49"/>
</g>
<g opacity="0.7">
<path opacity="0.7" d="M113.579 178C113.444 178 113.309 178 113.173 177.864C112.767 177.593 112.632 177.05 112.903 176.642L208.477 0.4073C208.748 -2.2335e-05 209.154 -0.135797 209.56 0.135752C209.966 0.4073 210.102 0.950397 209.831 1.35772L114.256 177.593C114.121 177.864 113.85 178 113.579 178Z" fill="#F8EA49"/>
</g>
<g opacity="0.6">
<path opacity="0.6" d="M151.078 178C150.943 178 150.808 178 150.672 177.864C150.266 177.593 150.131 177.05 150.402 176.642L246.112 0.4073C246.382 -2.2335e-05 246.789 -0.135797 247.195 0.135752C247.601 0.4073 247.736 0.950397 247.465 1.35772L151.755 177.728C151.62 177.864 151.349 178 151.078 178Z" fill="#F8EA49"/>
</g>
<g opacity="0.5">
<path opacity="0.5" d="M188.577 178C188.442 178 188.306 178 188.171 177.864C187.765 177.593 187.629 177.05 187.9 176.642L283.61 0.4073C283.881 -2.2335e-05 284.287 -0.135797 284.693 0.135752C285.099 0.4073 285.235 0.950397 284.964 1.35772L189.254 177.728C189.254 177.864 188.983 178 188.577 178Z" fill="#F8EA49"/>
</g>
<g opacity="0.4">
<path opacity="0.4" d="M226.211 178C226.076 178 225.941 178 225.805 177.864C225.399 177.593 225.264 177.05 225.534 176.642L321.244 0.4073C321.515 -2.2335e-05 321.921 -0.135797 322.327 0.135752C322.734 0.4073 322.869 0.950397 322.598 1.35772L226.888 177.728C226.753 177.864 226.482 178 226.211 178Z" fill="#F8EA49"/>
</g>
<g opacity="0.3">
<path opacity="0.3" d="M263.71 178C263.575 178 263.44 178 263.304 177.864C262.898 177.593 262.763 177.05 263.033 176.642L358.743 0.4073C359.014 -2.2335e-05 359.42 -0.135797 359.826 0.135752C360.233 0.4073 360.368 0.950397 360.097 1.35772L264.387 177.728C264.387 177.864 264.116 178 263.71 178Z" fill="#F8EA49"/>
</g>
<g opacity="0.2">
<path opacity="0.2" d="M301.345 178C301.209 178 301.074 178 300.938 177.864C300.532 177.593 300.397 177.05 300.668 176.642L396.378 0.4073C396.649 -2.2335e-05 397.055 -0.135797 397.461 0.135752C397.867 0.4073 398.002 0.950397 397.732 1.35772L302.021 177.728C301.886 177.864 301.615 178 301.345 178Z" fill="#F8EA49"/>
</g>
<g opacity="0.1">
<path opacity="0.1" d="M338.843 178C338.708 178 338.572 178 338.437 177.864C338.031 177.593 337.896 177.05 338.166 176.642L433.876 0.4073C434.147 -2.2335e-05 434.553 -0.135797 434.959 0.135752C435.365 0.4073 435.501 0.950397 435.23 1.35772L339.52 177.728C339.52 177.864 339.114 178 338.843 178Z" fill="#F8EA49"/>
</g>
</g>
<defs>
<clipPath id="clip0">
<rect width="473" height="178" fill="white"/>
</clipPath>
</defs>
</svg>
